HIERARCHY
ROOT Hips
{
  OFFSET 377.763 88.2609 174.383
  CHANNELS 6 Xposition Yposition Zposition Zrotation Xrotation Yrotation
  JOINT RightUpLeg
  {
    OFFSET -9.30536 -1.56319 -0.0308412
    CHANNELS 3 Zrotation Xrotation Yrotation
    JOINT RightLeg
    {
      OFFSET -0.0509473 -41.8867 0.0408735
      CHANNELS 3 Zrotation Xrotation Yrotation
      JOINT RightFoot
      {
        OFFSET -0.135761 -42.7852 -0.897951
        CHANNELS 3 Zrotation Xrotation Yrotation
        End Site
        {
          OFFSET 0 -7.69 17.5
        }
      }
    }
  }
  JOINT LeftUpLeg
  {
    OFFSET 9.25165 -1.62789 -0.00729124
    CHANNELS 3 Zrotation Xrotation Yrotation
    JOINT LeftLeg
    {
      OFFSET 0.024936 -41.8804 0.00207043
      CHANNELS 3 Zrotation Xrotation Yrotation
      JOINT LeftFoot
      {
        OFFSET 0.245063 -40.7505 0.529473
        CHANNELS 3 Zrotation Xrotation Yrotation
        End Site
        {
          OFFSET 0 -7.69 17.5
        }
      }
    }
  }
  JOINT Spine
  {
    OFFSET 0.0381636 14.2969 0.0214663
    CHANNELS 3 Zrotation Xrotation Yrotation
    JOINT Spine1
    {
      OFFSET 0.0273681 9.71499 0.0100001
      CHANNELS 3 Zrotation Xrotation Yrotation
      JOINT Spine2
      {
        OFFSET 0.029022 10.1215 -0.000399631
        CHANNELS 3 Zrotation Xrotation Yrotation
        JOINT Spine3
        {
          OFFSET 0.0290531 9.71322 0.0107928
          CHANNELS 3 Zrotation Xrotation Yrotation
          JOINT Neck
          {
            OFFSET 0.0830829 10.3832 0.0498053
            CHANNELS 3 Zrotation Xrotation Yrotation
            JOINT Head
            {
              OFFSET 0.0700972 9.47827 0.0499309
              CHANNELS 3 Zrotation Xrotation Yrotation
              End Site
              {
                OFFSET 0 15.95 0
              }
            }
          }
          JOINT RightShoulder
          {
            OFFSET -3.16088 6.93633 0.0290789
            CHANNELS 3 Zrotation Xrotation Yrotation
            JOINT RightArm
            {
              OFFSET -12.7509 0.028765 0.0682708
              CHANNELS 3 Zrotation Xrotation Yrotation
              JOINT RightForeArm
              {
                OFFSET -26.5067 -0.0728143 0.13822
                CHANNELS 3 Zrotation Xrotation Yrotation
                JOINT RightHand
                {
                  OFFSET -25.9897 -0.0664148 0.00141744
                  CHANNELS 3 Zrotation Xrotation Yrotation
                  JOINT RightHandThumb1
                  {
                    OFFSET -2.48905 0.190105 3.12053
                    CHANNELS 3 Zrotation Xrotation Yrotation
                    JOINT RightHandThumb2
                    {
                      OFFSET -3.68274 0 0
                      CHANNELS 3 Zrotation Xrotation Yrotation
                      JOINT RightHandThumb3
                      {
                        OFFSET -2.55832 0 0
                        CHANNELS 3 Zrotation Xrotation Yrotation
                        End Site
                        {
                          OFFSET -2.194 0 0
                        }
                      }
                    }
                  }
                  JOINT RightInHandIndex
                  {
                    OFFSET -3.22368 0.508421 1.97842
                    CHANNELS 3 Zrotation Xrotation Yrotation
                    JOINT RightHandIndex1
                    {
                      OFFSET -5.21684 -0.091368 0.999158
                      CHANNELS 3 Zrotation Xrotation Yrotation
                      JOINT RightHandIndex2
                      {
                        OFFSET -3.61937 0 0
                        CHANNELS 3 Zrotation Xrotation Yrotation
                        JOINT RightHandIndex3
                        {
                          OFFSET -2.0521 0 0
                          CHANNELS 3 Zrotation Xrotation Yrotation
                          End Site
                          {
                            OFFSET -1.805 0 0
                          }
                        }
                      }
                    }
                  }
                  JOINT RightInHandMiddle
                  {
                    OFFSET -3.38211 0.517263 0.756737
                    CHANNELS 3 Zrotation Xrotation Yrotation
                    JOINT RightHandMiddle1
                    {
                      OFFSET -5.17411 -0.084 0.313895
                      CHANNELS 3 Zrotation Xrotation Yrotation
                      JOINT RightHandMiddle2
                      {
                        OFFSET -3.94947 0 0
                        CHANNELS 3 Zrotation Xrotation Yrotation
                        JOINT RightHandMiddle3
                        {
                          OFFSET -2.47579 0 0
                          CHANNELS 3 Zrotation Xrotation Yrotation
                          End Site
                          {
                            OFFSET -1.975 0 0
                          }
                        }
                      }
                    }
                  }
                  JOINT RightInHandRing
                  {
                    OFFSET -3.36516 0.537895 -0.128947
                    CHANNELS 3 Zrotation Xrotation Yrotation
                    JOINT RightHandRing1
                    {
                      OFFSET -4.63474 -0.022105 -0.478947
                      CHANNELS 3 Zrotation Xrotation Yrotation
                      JOINT RightHandRing2
                      {
                        OFFSET -3.44238 0 0
                        CHANNELS 3 Zrotation Xrotation Yrotation
                        JOINT RightHandRing3
                        {
                          OFFSET -2.3881 0 0
                          CHANNELS 3 Zrotation Xrotation Yrotation
                          End Site
                          {
                            OFFSET -1.857 0 0
                          }
                        }
                      }
                    }
                  }
                  JOINT RightInHandPinky
                  {
                    OFFSET -3.16105 0.469368 -1.20179
                    CHANNELS 3 Zrotation Xrotation Yrotation
                    JOINT RightHandPinky1
                    {
                      OFFSET -4.14105 -0.022105 -1.09053
                      CHANNELS 3 Zrotation Xrotation Yrotation
                      JOINT RightHandPinky2
                      {
                        OFFSET -2.75653 0 0
                        CHANNELS 3 Zrotation Xrotation Yrotation
                        JOINT RightHandPinky3
                        {
                          OFFSET -1.74189 0 0
                          CHANNELS 3 Zrotation Xrotation Yrotation
                          End Site
                          {
                            OFFSET -1.645 0 0
                          }
                        }
                      }
                    }
                  }
                }
              }
            }
          }
          JOINT LeftShoulder
          {
            OFFSET 3.23403 6.91572 -0.0126821
            CHANNELS 3 Zrotation Xrotation Yrotation
            JOINT LeftArm
            {
              OFFSET 12.8488 -0.0444641 -0.0528339
              CHANNELS 3 Zrotation Xrotation Yrotation
              JOINT LeftForeArm
              {
                OFFSET 26.4942 -0.0237746 -0.09002
                CHANNELS 3 Zrotation Xrotation Yrotation
                JOINT LeftHand
                {
                  OFFSET 25.9989 -0.00653758 -0.026747
                  CHANNELS 3 Zrotation Xrotation Yrotation
                  JOINT LeftHandThumb1
                  {
                    OFFSET 2.48905 0.190105 3.12053
                    CHANNELS 3 Zrotation Xrotation Yrotation
                    JOINT LeftHandThumb2
                    {
                      OFFSET 3.68274 0 0
                      CHANNELS 3 Zrotation Xrotation Yrotation
                      JOINT LeftHandThumb3
                      {
                        OFFSET 2.55832 0 0
                        CHANNELS 3 Zrotation Xrotation Yrotation
                        End Site
                        {
                          OFFSET 2.194 0 0
                        }
                      }
                    }
                  }
                  JOINT LeftInHandIndex
                  {
                    OFFSET 3.22368 0.508421 1.97842
                    CHANNELS 3 Zrotation Xrotation Yrotation
                    JOINT LeftHandIndex1
                    {
                      OFFSET 5.21684 -0.091368 0.999158
                      CHANNELS 3 Zrotation Xrotation Yrotation
                      JOINT LeftHandIndex2
                      {
                        OFFSET 3.61937 0 0
                        CHANNELS 3 Zrotation Xrotation Yrotation
                        JOINT LeftHandIndex3
                        {
                          OFFSET 2.0521 0 0
                          CHANNELS 3 Zrotation Xrotation Yrotation
                          End Site
                          {
                            OFFSET 1.805 0 0
                          }
                        }
                      }
                    }
                  }
                  JOINT LeftInHandMiddle
                  {
                    OFFSET 3.38211 0.517263 0.756737
                    CHANNELS 3 Zrotation Xrotation Yrotation
                    JOINT LeftHandMiddle1
                    {
                      OFFSET 5.17411 -0.084 0.313895
                      CHANNELS 3 Zrotation Xrotation Yrotation
                      JOINT LeftHandMiddle2
                      {
                        OFFSET 3.94947 0 0
                        CHANNELS 3 Zrotation Xrotation Yrotation
                        JOINT LeftHandMiddle3
                        {
                          OFFSET 2.47579 0 0
                          CHANNELS 3 Zrotation Xrotation Yrotation
                          End Site
                          {
                            OFFSET 1.975 0 0
                          }
                        }
                      }
                    }
                  }
                  JOINT LeftInHandRing
                  {
                    OFFSET 3.36516 0.537895 -0.128947
                    CHANNELS 3 Zrotation Xrotation Yrotation
                    JOINT LeftHandRing1
                    {
                      OFFSET 4.63474 -0.022105 -0.478947
                      CHANNELS 3 Zrotation Xrotation Yrotation
                      JOINT LeftHandRing2
                      {
                        OFFSET 3.44238 0 0
                        CHANNELS 3 Zrotation Xrotation Yrotation
                        JOINT LeftHandRing3
                        {
                          OFFSET 2.3881 0 0
                          CHANNELS 3 Zrotation Xrotation Yrotation
                          End Site
                          {
                            OFFSET 1.857 0 0
                          }
                        }
                      }
                    }
                  }
                  JOINT LeftInHandPinky
                  {
                    OFFSET 3.16105 0.469368 -1.20179
                    CHANNELS 3 Zrotation Xrotation Yrotation
                    JOINT LeftHandPinky1
                    {
                      OFFSET 4.14105 -0.022105 -1.09053
                      CHANNELS 3 Zrotation Xrotation Yrotation
                      JOINT LeftHandPinky2
                      {
                        OFFSET 2.75653 0 0
                        CHANNELS 3 Zrotation Xrotation Yrotation
                        JOINT LeftHandPinky3
                        {
                          OFFSET 1.74189 0 0
                          CHANNELS 3 Zrotation Xrotation Yrotation
                          End Site
                          {
                            OFFSET 1.645 0 0
                          }
                        }
                      }
                    }
                  }
                }
              }
            }
          }
        }
      }
    }
  }
}
MOTION
Frames: 3
Frame Time: 0.00833333
7.487700239790098067e+02 -6.505671167181960035e-01 -2.440070318344900624e+00 2.178998571588189215e+00 2.330463155458311508e+00 -8.911389657382864371e+00 6.035613784932990278e+00 -4.025328645197601141e+00 2.063720804312026313e+00 -1.004185361171542779e+00 2.106128039096099247e+00 2.414657242708408091e+00 -8.404414266059013761e-01 5.510360293210114779e-01 3.717549011026662686e+00 5.641648021545681679e+00 9.188571438118131596e-02 3.070148923501475835e+00 -2.513071266114254243e+00 7.492769114671771202e-01 1.684583098482997032e+00 7.286269392270806611e-01 2.313349137464060234e-03 4.592443967153799100e+00 -2.238492795684454140e-01 -2.414649984151054696e+00 -2.775702070866978843e+00 -1.004209516523295320e-01 -4.428630115721445826e-01 -7.221396499738435004e-01 -1.334070532693989730e-01 -6.611675162966659247e-01 -1.167533251332467215e+00 1.418472882720897034e-02 -3.961544072298151670e-02 3.477124957621380852e-01 -8.347662932938285096e-02 -1.339386862330935513e+00 7.634287585760501038e+00 -9.125898386325428935e-02 1.404014886259154382e+00 2.764179435992458522e+00 8.206328174147048404e-01 3.073942233213942110e-01 -2.705893452051392423e+00 -3.655543221629351969e+00 -7.431358221610980586e+00 -5.910372829873900891e+00 -1.037817956902379990e+01 -3.575519011523955903e+00 2.590856812709435353e+00 -2.633603647162158889e+00 -4.063746471970542729e+00 3.246120768735585749e+00 0.000000000000000000e+00 0.000000000000000000e+00 0.000000000000000000e+00 4.303947664786399029e-15 3.375931323773304501e-15 0.000000000000000000e+00 8.262878834729448406e-15 7.180115149119151300e-16 0.000000000000000000e+00 -1.136205597611248893e-16 -2.996513164867726244e-15 -1.058426079682042748e-15 0.000000000000000000e+00 0.000000000000000000e+00 0.000000000000000000e+00 0.000000000000000000e+00 1.153765886883599434e-15 1.393543973210872375e-14 0.000000000000000000e+00 5.174221868801637012e-15 3.207500445722500895e-14 -1.136205597611248893e-16 -2.996513164867726244e-15 -1.058426079682042748e-15 0.000000000000000000e+00 -2.103012502734684711e-15 6.819735933072710059e-15 0.000000000000000000e+00 -1.690563009920204208e-15 1.210653346554465806e-14 0.000000000000000000e+00 8.568466789094766297e-15 3.983678829813243622e-14 -1.136205597611248893e-16 -2.996513164867726244e-15 -1.058426079682042748e-15 0.000000000000000000e+00 0.000000000000000000e+00 0.000000000000000000e+00 0.000000000000000000e+00 3.469741522671248662e-15 1.353862868094220985e-14 0.000000000000000000e+00 6.436051121194660346e-15 2.746895343768881204e-14 -1.136205597611248893e-16 -2.996513164867726244e-15 -1.058426079682042748e-15 0.000000000000000000e+00 0.000000000000000000e+00 0.000000000000000000e+00 0.000000000000000000e+00 7.482795577922333089e-16 9.149117038733282258e-15 0.000000000000000000e+00 3.807016650681630939e-15 3.244962450208260985e-14 -2.894445016578628849e+00 -1.004073143073965335e+00 -2.353827343769732128e+00 8.138080407110789949e+00 -2.491513289013118082e-01 -6.631436224178772321e+00 1.625307517980992955e+01 4.971423976371362130e+00 1.533088007243798856e+01 -3.666344557131420601e+00 1.135529427889552689e+00 -7.679891156263336516e-01 0.000000000000000000e+00 0.000000000000000000e+00 0.000000000000000000e+00 -1.636338799404550532e-16 3.213617245278356717e-15 0.000000000000000000e+00 -4.596960598948477154e-15 1.053620079663633394e-15 0.000000000000000000e+00 -4.594563122535530972e-16 -7.186300670128105409e-16 9.666026813528107418e-16 0.000000000000000000e+00 0.000000000000000000e+00 0.000000000000000000e+00 0.000000000000000000e+00 2.001751934441132264e-16 -8.311111394594714049e-15 0.000000000000000000e+00 3.400650635800322692e-15 -1.970610966659162894e-14 -4.594563122535530972e-16 -7.186300670128105409e-16 9.666026813528107418e-16 0.000000000000000000e+00 -6.742311941904133466e-16 -4.008276797560241273e-15 0.000000000000000000e+00 1.673326005314910163e-15 -8.636426573689887049e-15 0.000000000000000000e+00 3.102153365642499119e-15 -1.940904803547504698e-14 -4.594563122535530972e-16 -7.186300670128105409e-16 9.666026813528107418e-16 0.000000000000000000e+00 0.000000000000000000e+00 0.000000000000000000e+00 0.000000000000000000e+00 -1.220921004529839930e-16 -6.587070298300784844e-15 0.000000000000000000e+00 1.587783998298634899e-15 -2.007538464019438083e-14 -4.594563122535530972e-16 -7.186300670128105409e-16 9.666026813528107418e-16 0.000000000000000000e+00 0.000000000000000000e+00 0.000000000000000000e+00 0.000000000000000000e+00 1.142339560164980418e-15 -8.229777811400138757e-15 0.000000000000000000e+00 -2.098359506808709486e-15 -8.771707388887971553e-15
7.488341694070464882e+02 -6.254897065390317978e-01 -2.374131816243909121e+00 2.114372210898611382e+00 2.286452852363764165e+00 -8.401943688233831864e+00 5.682645379627191851e+00 -3.893407677435772651e+00 1.870441391563699485e+00 -9.743845841460934132e-01 2.060333496917029272e+00 2.319550297087693558e+00 -7.986399533549248808e-01 5.041241217677743247e-01 3.468686190848839779e+00 5.374467079751301668e+00 -1.565359987153014387e-03 2.883917094275271431e+00 -2.349173928945385015e+00 6.923518352922610752e-01 1.536746604039559205e+00 6.760344906841581070e-01 7.142985718119079785e-02 4.355303817385911991e+00 -2.208259967547320235e-01 -2.320817378890180471e+00 -2.622227967451750796e+00 -9.753466568833241146e-02 -4.250216013252049452e-01 -6.830791176465594861e-01 -1.299102638360366269e-01 -6.341350887565422312e-01 -1.103423826257107221e+00 1.562551940103049791e-02 -3.491554538022940968e-02 3.234434951589136298e-01 -1.019411522814850229e-01 -1.306868923307791253e+00 7.376759020761129548e+00 -5.222594208189312859e-02 1.437325469137318512e+00 2.399501548003020623e+00 7.723113727865023037e-01 2.841850388411299444e-01 -2.599221484773674984e+00 -3.466188854845502654e+00 -6.982128542323520648e+00 -5.660795825338179377e+00 -9.851000686557947361e+00 -3.682924776100794162e+00 2.578677910484754143e+00 -2.537373652664774326e+00 -3.897216155247761993e+00 3.206952935847726227e+00 0.000000000000000000e+00 0.000000000000000000e+00 0.000000000000000000e+00 3.892957321590670710e-15 3.281619478221445602e-15 0.000000000000000000e+00 7.522384984408622200e-15 7.729287648415211420e-16 0.000000000000000000e+00 -3.602913542368043991e-17 -2.739842175143206622e-15 -1.001690950921651971e-15 0.000000000000000000e+00 0.000000000000000000e+00 0.000000000000000000e+00 0.000000000000000000e+00 1.108094478740598561e-15 1.274634899128485594e-14 0.000000000000000000e+00 4.682960631158909796e-15 2.903007475594056234e-14 -3.602913542368043991e-17 -2.739842175143206622e-15 -1.001690950921651971e-15 0.000000000000000000e+00 -1.932955611732432973e-15 6.437348182681771205e-15 0.000000000000000000e+00 -1.581925188626964055e-15 1.127282589375987334e-14 0.000000000000000000e+00 7.890639937601485748e-15 3.636805443259172260e-14 -3.602913542368043991e-17 -2.739842175143206622e-15 -1.001690950921651971e-15 0.000000000000000000e+00 0.000000000000000000e+00 0.000000000000000000e+00 0.000000000000000000e+00 3.318331916828477100e-15 1.261078579810173553e-14 0.000000000000000000e+00 5.834186749939622203e-15 2.487364804536851258e-14 -3.602913542368043991e-17 -2.739842175143206622e-15 -1.001690950921651971e-15 0.000000000000000000e+00 0.000000000000000000e+00 0.000000000000000000e+00 0.000000000000000000e+00 7.043491204440603127e-16 8.952314240056934205e-15 0.000000000000000000e+00 3.499777689997814723e-15 3.005828505655948381e-14 -2.787873833214471020e+00 -9.331010388029671310e-01 -2.212282289860134199e+00 7.765155313712224228e+00 -2.351464553650653988e-01 -6.279023235041701234e+00 1.565211580037875905e+01 4.800741182999097134e+00 1.484886013052676823e+01 -3.538549614889636263e+00 1.108534086094012050e+00 -6.971620371163211871e-01 0.000000000000000000e+00 0.000000000000000000e+00 0.000000000000000000e+00 -2.198317252504662459e-16 3.038466242657234705e-15 0.000000000000000000e+00 -4.392409338420291873e-15 9.788230635047345050e-16 0.000000000000000000e+00 -4.785619571841238950e-16 -8.042230950681600627e-16 9.421226016794538436e-16 0.000000000000000000e+00 0.000000000000000000e+00 0.000000000000000000e+00 0.000000000000000000e+00 8.272457100477081040e-17 -7.881029608727136112e-15 0.000000000000000000e+00 3.152167369800649507e-15 -1.876955026361697520e-14 -4.785619571841238950e-16 -8.042230950681600627e-16 9.421226016794538436e-16 0.000000000000000000e+00 -7.502054780191281042e-16 -3.759376426933674601e-15 0.000000000000000000e+00 1.723564533506138362e-15 -8.046888658406773458e-15 0.000000000000000000e+00 2.898961104763987286e-15 -1.805927783535710063e-14 -4.785619571841238950e-16 -8.042230950681600627e-16 9.421226016794538436e-16 0.000000000000000000e+00 0.000000000000000000e+00 0.000000000000000000e+00 0.000000000000000000e+00 -1.410109860377813222e-16 -6.149272548388785685e-15 0.000000000000000000e+00 1.493353314212926746e-15 -1.890087996580270264e-14 -4.785619571841238950e-16 -8.042230950681600627e-16 9.421226016794538436e-16 0.000000000000000000e+00 0.000000000000000000e+00 0.000000000000000000e+00 0.000000000000000000e+00 1.139304206433696346e-15 -7.826716185292052281e-15 0.000000000000000000e+00 -1.964238254930193761e-15 -8.113166648731785266e-15
7.488984694540787359e+02 -6.011232612911771023e-01 -2.308009515496253439e+00 2.052273885971817258e+00 2.241752514721182088e+00 -7.911619931099209246e+00 5.340784768548306971e+00 -3.771207960980859752e+00 1.685222349191129565e+00 -9.456393952216896048e-01 2.014894397560942352e+00 2.227347090415074060e+00 -7.555524057275596617e-01 4.580556047153599986e-01 3.225254378211385831e+00 5.117549650651973536e+00 -9.727669455111143115e-02 2.705703679569531062e+00 -2.190255307369928683e+00 6.414104981059496335e-01 1.394421469752099130e+00 6.259981415966137108e-01 1.377010678641317765e-01 4.127724937538113537e+00 -2.168059620392344677e-01 -2.227091754777151600e+00 -2.477847237479413156e+00 -9.452019125260453791e-02 -4.070904959121358635e-01 -6.463497584317889899e-01 -1.261753132434124403e-01 -6.068624478283235479e-01 -1.043032197298912722e+00 1.661877929125978037e-02 -3.036181149529651804e-02 3.004149921404091761e-01 -1.205443660924160471e-01 -1.273061510541274810e+00 7.119398328814375176e+00 -2.128326989982046169e-02 1.465508706570516129e+00 2.059037929813290368e+00 7.261826371680679681e-01 2.651671847160816387e-01 -2.498808930865906053e+00 -3.266309587508681389e+00 -6.543332440918269377e+00 -5.421308873078069190e+00 -9.308804562216426604e+00 -3.786771853081272621e+00 2.588802419629193885e+00 -2.443984998791767449e+00 -3.733707441068131683e+00 3.168037144464713961e+00 0.000000000000000000e+00 0.000000000000000000e+00 0.000000000000000000e+00 3.485890562643821399e-15 3.182701897504554371e-15 0.000000000000000000e+00 6.786942108189427958e-15 8.248690837079205798e-16 0.000000000000000000e+00 3.893003380498532935e-17 -2.485361278424222718e-15 -9.441318920553026152e-16 0.000000000000000000e+00 0.000000000000000000e+00 0.000000000000000000e+00 0.000000000000000000e+00 1.060435144317898025e-15 1.156473036001155406e-14 0.000000000000000000e+00 4.196011330826169171e-15 2.601278278390090625e-14 3.893003380498532935e-17 -2.485361278424222718e-15 -9.441318920553026152e-16 0.000000000000000000e+00 -1.764522824379444945e-15 6.051960074120080702e-15 0.000000000000000000e+00 -1.473414395460234283e-15 1.043916615384814976e-14 0.000000000000000000e+00 7.216999561123333598e-15 3.292306075709488210e-14 3.893003380498532935e-17 -2.485361278424222718e-15 -9.441318920553026152e-16 0.000000000000000000e+00 0.000000000000000000e+00 0.000000000000000000e+00 0.000000000000000000e+00 3.164132877373580975e-15 1.168444955532762977e-14 0.000000000000000000e+00 5.238041588666613579e-15 2.230061711272894243e-14 3.893003380498532935e-17 -2.485361278424222718e-15 -9.441318920553026152e-16 0.000000000000000000e+00 0.000000000000000000e+00 0.000000000000000000e+00 0.000000000000000000e+00 6.586415584640248120e-16 8.743688838151117610e-15 0.000000000000000000e+00 3.193156574192328538e-15 2.767335832655501918e-14 -2.679473865022065304e+00 -8.629357617519310963e-01 -2.078368995833522082e+00 7.399708568386765606e+00 -2.183721211695083264e-01 -5.934482317927384010e+00 1.506015051273843142e+01 4.643396005213941358e+00 1.438495036174545660e+01 -3.413083014455846609e+00 1.081282124633084818e+00 -6.237895243049476068e-01 0.000000000000000000e+00 0.000000000000000000e+00 0.000000000000000000e+00 -2.748704645101120852e-16 2.862775601747196694e-15 0.000000000000000000e+00 -4.186769572170041245e-15 9.038454701937194991e-16 0.000000000000000000e+00 -4.953213719219029871e-16 -8.880961248061564464e-16 9.168090633658740162e-16 0.000000000000000000e+00 0.000000000000000000e+00 0.000000000000000000e+00 0.000000000000000000e+00 -3.076394571813893154e-17 -7.448655482793933768e-15 0.000000000000000000e+00 2.905636267665939158e-15 -1.782150823386896661e-14 -4.953213719219029871e-16 -8.880961248061564464e-16 9.168090633658740162e-16 0.000000000000000000e+00 -8.227714059140093488e-16 -3.510936889763452938e-15 0.000000000000000000e+00 1.769897984124537150e-15 -7.457773960160816169e-15 0.000000000000000000e+00 2.695900635658610670e-15 -1.671099721575395547e-14 -4.953213719219029871e-16 -8.880961248061564464e-16 9.168090633658740162e-16 0.000000000000000000e+00 0.000000000000000000e+00 0.000000000000000000e+00 0.000000000000000000e+00 -1.598729425193267078e-16 -5.712053246630917467e-15 0.000000000000000000e+00 1.396857196783816154e-15 -1.772281763043264756e-14 -4.953213719219029871e-16 -8.880961248061564464e-16 9.168090633658740162e-16 0.000000000000000000e+00 0.000000000000000000e+00 0.000000000000000000e+00 0.000000000000000000e+00 1.134764957581661321e-15 -7.422089746941134173e-15 0.000000000000000000e+00 -1.830424755228558053e-15 -7.459694879117689293e-15
